<svg xmlns="http://www.w3.org/2000/svg" xmlns:xlink="http://www.w3.org/1999/xlink" viewBox="0,0,256,256" width="96px" height="96px" fill-rule="nonzero"><g fill-opacity="0" fill="#ffffff" fill-rule="nonzero" stroke="none" stroke-width="1" stroke-linecap="butt" stroke-linejoin="miter" stroke-miterlimit="10" stroke-dasharray="" stroke-dashoffset="0" font-family="none" font-weight="none" font-size="none" text-anchor="none" style="mix-blend-mode: normal"><path d="M0,256v-256h256v256z" id="bgRectangle"></path></g><g fill="none" fill-rule="none" stroke="none" stroke-width="1" stroke-linecap="butt" stroke-linejoin="miter" stroke-miterlimit="10" stroke-dasharray="" stroke-dashoffset="0" font-family="none" font-weight="none" font-size="none" text-anchor="none" style="mix-blend-mode: normal"><g transform="scale(5.33333,5.33333)"><path d="M37.5,4.343c-3.395,-1.068 -8.372,-1.785 -13.5,-1.785c-5.128,0 -10.105,0.717 -13.5,1.785c-4.551,1.432 -5.5,2.056 -5.5,5.174c0,16.39 6.455,25.501 12.163,30.965c3.004,2.875 5.784,4.961 6.837,4.961c1.053,0 3.833,-2.085 6.837,-4.961c5.708,-5.464 12.163,-14.575 12.163,-30.965c0,-3.118 -0.949,-3.742 -5.5,-5.174z" fill="#ffc107" fill-rule="nonzero"></path><path d="M24.009,44.442c-0.449,-0.036 -2.543,-1.227 -6.154,-4.683c-7.977,-7.636 -11.855,-17.528 -11.855,-30.242c0,-2.37 0.297,-2.803 4.8,-4.22c3.462,-1.089 8.397,-1.739 13.2,-1.739z" fill="#ffd54f" fill-rule="nonzero"></path><path d="M29.454,39.037c-2.78,2.661 -4.703,4.007 -5.454,4.35c-0.751,-0.343 -2.674,-1.689 -5.454,-4.35c-7.769,-7.437 -11.546,-17.093 -11.546,-29.52c0,-1.827 0,-1.976 4.1,-3.266c3.37,-1.06 8.193,-1.693 12.9,-1.693c4.707,0 9.53,0.633 12.9,1.693c4.1,1.29 4.1,1.439 4.1,3.266c0,12.427 -3.777,22.083 -11.546,29.52z" fill="#212121" fill-rule="nonzero"></path><path d="M24,43.387c-0.751,-0.343 -2.674,-1.689 -5.454,-4.35c-7.769,-7.437 -11.546,-17.093 -11.546,-29.52c0,-1.827 0,-1.976 4.1,-3.266c3.37,-1.06 8.193,-1.693 12.9,-1.693c0,0 0.751,38.486 0,38.829z" fill="#424242" fill-rule="nonzero"></path><path d="M9.448,9.266l0.775,-0.296v3.571l1.289,-0.479v0.758l-2.064,0.74c0,-0.001 0,-4.303 0,-4.294zM13.372,8.064l-0.726,0.177l-1.032,4.531l0.814,-0.242l0.226,-1.121l0.742,-0.21l0.25,1.064l0.806,-0.202zM12.775,10.684l0.242,-1.354l0.258,1.241zM14.783,11.998l0.709,-0.129l-0.048,-2.354l0.774,2.564l0.79,-2.523l-0.056,2.08l0.766,-0.081v-4.273l-0.774,0.097l-0.694,2.563l-0.717,-2.346l-0.758,0.169c0,0.001 0,4.241 0.008,4.233zM20.281,9.064c0.202,-0.153 0.403,-0.331 0.403,-0.911c0,-0.58 -0.435,-1.064 -1.056,-1.032c-0.524,0.027 -1.298,0.105 -1.298,0.105v4.24c0,0 1.233,-0.097 1.379,-0.113c0.145,-0.016 1.04,-0.193 1.04,-1.411c-0.001,0 0.007,-0.661 -0.468,-0.878zM19.092,7.875c0,0 0.303,-0.014 0.366,-0.017c0.063,-0.003 0.453,-0.007 0.453,0.352c0,0.359 -0.24,0.547 -0.415,0.564c-0.174,0.017 -0.408,0.014 -0.408,0.014zM19.579,10.595c-0.177,0.032 -0.476,0.039 -0.476,0.039v-1.087c0,0 0.371,-0.024 0.443,-0.024c0.073,0 0.435,0.056 0.435,0.451c0.001,0.396 -0.224,0.589 -0.402,0.621zM22.423,6.894c-0.729,0 -1.32,0.705 -1.32,2.185c0,1.726 0.591,2.185 1.32,2.185c0.729,0 1.32,-0.727 1.32,-2.185c0,-1.459 -0.591,-2.185 -1.32,-2.185zM22.423,10.538c-0.31,0 -0.561,-0.302 -0.561,-1.437c0,-0.973 0.251,-1.437 0.561,-1.437c0.31,0 0.561,0.478 0.561,1.437c0,0.959 -0.251,1.437 -0.561,1.437zM26.063,9.304c0,0 0.614,-0.22 0.614,-1.124c0,-0.904 -0.73,-1.17 -1.008,-1.182c-0.278,-0.012 -1.471,-0.058 -1.471,-0.058v4.252h0.753c0,0.012 0.012,-1.761 0.012,-1.761h0.29l0.649,1.796l0.834,0.035zM25.507,8.725c-0.243,0 -0.556,0 -0.556,0v-1.02c0,0 0.255,0 0.452,0c0.197,0 0.521,0.116 0.521,0.452c0,0.336 -0.174,0.568 -0.417,0.568zM28.738,9.861l-0.431,-0.029v-0.74l1.208,0.101c0,0 0,0.791 0,0.992c0,0.201 0,1.229 -1.121,1.229c-1.121,0 -1.423,-1.143 -1.423,-2.358c0,-1.215 0.395,-2.041 1.251,-2.041c1.205,0 1.301,1.301 1.301,1.301l-0.776,0.137c0,0 -0.115,-0.668 -0.453,-0.668c-0.338,0 -0.568,0.604 -0.568,1.358c0,0.755 0.165,1.517 0.625,1.517c0.392,0 0.395,-0.46 0.395,-0.553c-0.001,-0.095 -0.008,-0.246 -0.008,-0.246zM30.083,7.271v4.246l0.741,0.114l0.014,-1.866l0.969,0.128l-0.014,1.852l0.798,0.143v-4.218l-0.784,-0.156v1.624l-0.954,-0.143v-1.609zM33.196,7.794v4.214l0.792,0.15v-4.214zM34.629,8.072v4.215l0.739,0.224v-2.621l1.112,2.921l0.642,0.246v-4.279l-0.77,-0.257v2.268l-1.006,-2.546zM37.753,9.013v4.247l0.77,0.31v-4.289z" fill="#ffca28" fill-rule="nonzero"></path><path d="M26.57,16.39c-0.286,-0.152 -0.63,-0.252 -0.977,-0.279c-0.347,-0.027 -0.697,0.02 -0.999,0.163c-0.301,0.143 -1.042,0.441 -1.811,0.934c-0.77,0.494 -1.568,1.183 -1.986,2.107c-0.418,0.924 -0.633,1.509 -0.766,1.916c-0.133,0.407 -0.183,0.636 -0.272,0.848c-0.089,0.212 -0.231,0.426 -0.356,0.666c-0.125,0.24 -0.231,0.505 -0.246,0.819c-0.015,0.314 -0.063,0.681 -0.124,1.032c-0.061,0.352 -0.136,0.687 -0.208,0.94c-0.072,0.252 -0.164,0.542 -0.244,0.869c-0.08,0.326 -0.147,0.686 -0.166,1.079c-0.019,0.392 -0.067,0.784 -0.145,1.149c-0.076,0.365 -0.181,0.704 -0.313,0.993c-0.132,0.289 -0.184,0.542 -0.239,0.78c-0.056,0.239 -0.116,0.462 -0.265,0.691c-0.148,0.228 -0.349,0.514 -0.548,0.785c-0.2,0.27 -0.399,0.527 -0.544,0.696c-0.146,0.17 -0.225,0.372 -0.194,0.546c0.031,0.174 0.171,0.318 0.463,0.372c0.291,0.053 0.549,0.007 0.745,-0.101c0.197,-0.108 0.332,-0.279 0.381,-0.474c0.048,-0.194 0.062,-0.469 0.091,-0.748c0.028,-0.279 0.071,-0.562 0.18,-0.773l0.219,-0.462c0.106,-0.152 0.177,-0.208 0.248,-0.253c0.071,-0.046 0.141,-0.082 0.245,-0.195c0.103,-0.113 0.276,-0.429 0.426,-0.786c0.15,-0.356 0.277,-0.753 0.29,-1.028c0.014,-0.275 0.054,-0.489 0.112,-0.669c0.057,-0.179 0.133,-0.323 0.218,-0.457c0.085,-0.134 0.141,-0.288 0.221,-0.402c0.079,-0.115 0.181,-0.188 0.356,-0.16c0.175,0.028 0.22,0.119 0.234,0.233c0.014,0.114 -0.002,0.251 0.051,0.372c0.053,0.12 0.105,0.251 0.183,0.368c0.077,0.117 0.181,0.22 0.334,0.287c0.154,0.066 0.275,0.19 0.332,0.331c0.057,0.141 0.049,0.298 -0.055,0.43c-0.105,0.132 -0.253,0.361 -0.378,0.597c-0.124,0.235 -0.224,0.476 -0.232,0.633c-0.007,0.157 0.001,0.394 -0.041,0.638c-0.041,0.244 -0.132,0.495 -0.337,0.682c-0.205,0.187 -0.371,0.375 -0.487,0.542c-0.116,0.166 -0.182,0.311 -0.186,0.409c-0.005,0.098 0.028,0.228 0.125,0.336c0.098,0.108 0.26,0.195 0.515,0.207c0.254,0.012 0.452,-0.027 0.604,-0.113c0.151,-0.086 0.255,-0.219 0.323,-0.392c0.067,-0.174 0.063,-0.302 0.044,-0.416c-0.019,-0.114 -0.054,-0.214 -0.047,-0.332c0.006,-0.118 0.052,-0.254 0.102,-0.393c0.051,-0.14 0.107,-0.285 0.134,-0.421c0.026,-0.136 0.064,-0.302 0.136,-0.485c0.073,-0.183 0.18,-0.384 0.347,-0.593c0.167,-0.209 0.264,-0.391 0.346,-0.554c0.082,-0.163 0.147,-0.308 0.252,-0.441c0.105,-0.132 0.148,-0.2 0.187,-0.217c0.04,-0.018 0.078,0.014 0.173,0.077c0.095,0.064 0.112,0.124 0.089,0.191c-0.023,0.067 -0.086,0.143 -0.149,0.239c-0.063,0.095 -0.189,0.256 -0.32,0.427c-0.131,0.171 -0.268,0.351 -0.352,0.485c-0.085,0.134 -0.143,0.308 -0.125,0.457c0.017,0.148 0.109,0.271 0.323,0.301c0.215,0.03 0.381,0.038 0.5,0.009c0.119,-0.028 0.191,-0.094 0.216,-0.211c0.026,-0.117 0.074,-0.301 0.137,-0.485c0.063,-0.184 0.14,-0.367 0.224,-0.48c0.084,-0.114 0.138,-0.22 0.172,-0.312c0.034,-0.092 0.048,-0.17 0.051,-0.229c0.112,0.124 0.202,0.266 0.279,0.412c0.076,0.147 0.137,0.297 0.189,0.437c0.052,0.141 0.181,0.314 0.42,0.454c0.238,0.14 0.586,0.245 1.076,0.249c0.491,0.005 0.736,-0.003 0.875,-0.041c0.139,-0.037 0.172,-0.105 0.236,-0.219c0.064,-0.114 0.213,-0.344 0.293,-0.581c0.081,-0.237 0.093,-0.483 -0.116,-0.631c0.049,-0.194 0.12,-0.456 0.221,-0.707c0.1,-0.251 0.23,-0.491 0.394,-0.64c0.164,-0.15 0.387,-0.296 0.585,-0.429c0.198,-0.133 0.371,-0.253 0.434,-0.348c0.248,0.15 0.474,0.333 0.638,0.587c0.165,0.254 0.266,0.579 0.265,1.012c-0.012,0.235 0.007,0.457 0.032,0.65c0.025,0.193 0.055,0.357 0.069,0.476c0.014,0.119 0.008,0.246 0.001,0.379c-0.006,0.132 -0.013,0.27 0,0.408c0.013,0.139 0.094,0.27 0.203,0.364c0.108,0.094 0.243,0.15 0.361,0.136c0.119,-0.013 0.232,-0.116 0.317,-0.25c0.085,-0.134 0.142,-0.298 0.148,-0.436c0.007,-0.137 -0.027,-0.238 -0.078,-0.319c-0.05,-0.082 -0.116,-0.143 -0.171,-0.205c-0.056,-0.062 -0.093,-0.113 -0.099,-0.187c-0.006,-0.074 0.018,-0.171 0.085,-0.325c0.066,-0.155 0.063,-0.293 0.029,-0.407c-0.034,-0.115 -0.098,-0.206 -0.153,-0.268c-0.056,-0.062 -0.116,-0.232 -0.155,-0.451c-0.038,-0.218 -0.055,-0.485 -0.023,-0.739c0.032,-0.254 0.022,-0.55 -0.034,-0.808c-0.056,-0.259 -0.158,-0.48 -0.31,-0.586c0.451,0.002 0.966,-0.002 1.432,-0.107c0.466,-0.105 0.883,-0.311 1.139,-0.712c-0.254,-0.032 -0.549,-0.027 -0.895,-0.152c-0.347,-0.125 -0.746,-0.381 -1.21,-0.935c0.051,-0.233 0.068,-0.39 0.06,-0.523c-0.008,-0.133 -0.042,-0.243 -0.094,-0.383c-0.052,-0.141 -0.124,-0.272 -0.163,-0.48c-0.039,-0.208 -0.045,-0.494 0.037,-0.943c0.081,-0.448 0.106,-1.175 -0.036,-1.979c-0.142,-0.804 -0.452,-1.685 -1.043,-2.442c0.202,-0.522 0.318,-0.88 0.357,-1.173c0.039,-0.293 0.001,-0.522 -0.104,-0.782c-0.105,-0.261 -0.408,-0.492 -0.86,-0.667c-0.453,-0.174 -1.055,-0.292 -1.759,-0.327c-0.705,-0.034 -1.714,-0.054 -2.545,-0.119c-0.83,-0.065 -1.482,-0.175 -1.472,-0.392c0.011,-0.216 0.133,-0.308 0.292,-0.35c0.159,-0.041 0.354,-0.031 0.512,-0.044c0.23,0.11 0.56,0.184 0.906,0.236c0.346,0.051 0.707,0.079 1.001,0.093c0.294,0.014 0.571,-0.051 0.864,-0.116c0.292,-0.064 0.6,-0.128 0.952,-0.111c-0.289,-0.113 -0.653,-0.278 -1.03,-0.405c-0.377,-0.126 -0.765,-0.214 -1.1,-0.171c-0.112,-0.124 -0.195,-0.217 -0.33,-0.262c-0.136,-0.046 -0.322,-0.046 -0.638,0.018c-0.317,0.063 -0.515,0.083 -0.682,0.095c-0.167,0.011 -0.305,0.014 -0.502,0.044c-0.197,0.03 -0.473,0.046 -0.703,0.138c-0.23,0.092 -0.415,0.26 -0.431,0.594c-0.016,0.334 0.077,0.634 0.399,0.861c0.323,0.227 0.874,0.382 1.775,0.426c0.9,0.044 1.879,0.082 2.684,0.175c0.805,0.093 1.435,0.242 1.638,0.507c0.202,0.266 0.253,0.436 0.212,0.571c-0.041,0.136 -0.174,0.238 -0.337,0.367c-0.137,-0.006 -0.382,-0.008 -0.665,-0.047c-0.282,-0.038 -0.602,-0.113 -0.889,-0.265" fill="#ffca28" fill-rule="evenodd"></path><path d="M23.216,29.328c-0.029,0.191 -0.122,0.663 -0.119,0.771c0,0 -0.164,0.004 -0.24,0.1c-0.073,0.096 -0.287,0.125 -0.367,0.016c0,0 -0.181,-0.147 0.03,-0.293c0.211,-0.142 0.505,-0.557 0.529,-0.615c0.025,-0.057 0.197,-0.173 0.167,0.021zM22.238,30.401c-0.031,-0.008 -0.075,0.012 -0.085,0.042c-0.017,0.035 -0.017,0.108 0.02,0.117c0.045,0.013 0.091,-0.041 0.109,-0.085c0.01,-0.025 -0.016,-0.067 -0.044,-0.074zM20.494,32.739c-0.051,-0.008 -0.098,0.029 -0.105,0.08c-0.008,0.051 0.025,0.1 0.077,0.108c0.051,0.008 0.1,-0.028 0.108,-0.079c0.008,-0.052 -0.028,-0.101 -0.08,-0.109zM20.046,32.265c-0.06,-0.009 -0.109,0.009 -0.114,0.044c-0.005,0.031 0.037,0.064 0.097,0.073c0.057,0.009 0.106,-0.01 0.111,-0.041c0.004,-0.034 -0.037,-0.067 -0.094,-0.076zM21.143,29.626c-0.058,0.134 -0.071,0.464 -0.104,0.675c-0.032,0.208 0.118,0.161 0.193,0.126c0.079,-0.037 0.331,-0.45 0.299,-0.787c-0.029,-0.341 -0.388,-0.014 -0.388,-0.014zM20.621,31.389c-0.278,0.1 -0.105,0.281 -0.333,0.461c-0.232,0.18 -0.103,0.27 -0.103,0.27c0,0 0.079,0.263 0.204,0.305c0.124,0.043 0.354,-0.123 0.541,-0.106c0.187,0.017 0.135,-0.253 0.158,-0.404c0.024,-0.154 -0.083,-0.24 -0.162,-0.503c-0.079,-0.262 -0.305,-0.023 -0.305,-0.023zM17.812,29.634c-0.01,0.199 0.236,0.092 0.214,-0.025c-0.023,-0.114 0.067,-0.435 0.067,-0.435c-0.156,0.101 -0.271,0.258 -0.281,0.46zM16.616,33.144c-0.048,-0.007 -0.096,0.017 -0.102,0.054c-0.005,0.034 0.033,0.072 0.081,0.079c0.051,0.008 0.096,-0.017 0.101,-0.051c0.006,-0.036 -0.029,-0.074 -0.08,-0.082zM16.978,31.968c-0.05,0.056 -0.658,0.738 -0.808,0.819c-0.15,0.082 -0.096,0.209 -0.034,0.274c0.062,0.068 0.204,-0.079 0.204,-0.079c0.137,-0.413 0.376,-0.414 0.629,-0.393c0.253,0.024 0.385,-0.156 0.395,-0.429c0.01,-0.268 -0.337,-0.249 -0.386,-0.192zM26.772,26.973c-0.001,0.046 0.051,0.087 0.091,0.11c0.024,0.013 0.077,0.009 0.078,-0.017c0,-0.055 -0.025,-0.12 -0.076,-0.149c-0.029,-0.018 -0.093,0.019 -0.093,0.056zM26.14,27.272c-0.046,0.034 -0.064,0.168 -0.009,0.171c0.087,0.005 0.198,-0.074 0.202,-0.158c0.001,-0.064 -0.143,-0.054 -0.193,-0.013zM26.253,26.859c0.029,-0.019 0.021,-0.081 -0.008,-0.1c-0.05,-0.034 -0.133,-0.064 -0.185,-0.028c-0.043,0.031 -0.052,0.132 -0.007,0.159c0.059,0.037 0.145,0.007 0.2,-0.031zM28.392,25.094c-0.099,-0.018 -0.118,0.101 -0.019,0.125c0.17,0.047 0.37,0.075 0.494,0.251c0.095,0.137 0.234,-0.066 0.093,-0.169c-0.162,-0.116 -0.378,-0.172 -0.568,-0.207zM30.034,27.298c-0.074,-0.011 -0.201,-0.133 -0.201,-0.133c-0.065,-0.185 -0.118,0.046 -0.126,0.1c-0.008,0.054 0.181,0.185 0.301,0.204c0.116,0.018 0.097,-0.16 0.026,-0.171zM30.029,26.782c-0.174,-0.12 -0.279,-0.346 -0.345,-0.56c-0.069,-0.212 -0.082,-0.243 -0.21,-0.262c-0.125,-0.019 -0.197,0.276 -0.22,0.426c-0.024,0.154 0.117,0.018 0.117,0.018c0.031,-0.141 0.119,-0.054 0.155,-0.002c0.038,0.052 0.219,0.375 0.264,0.501c0.044,0.125 0.413,-0.001 0.239,-0.121zM30.555,25.244c-0.295,-0.175 -0.61,-0.404 -0.808,-0.669c-0.148,-0.199 -0.244,-0.292 -0.335,-0.347c-0.09,-0.055 -0.175,-0.071 -0.3,-0.117c-0.125,-0.045 -0.371,-0.121 -0.625,-0.257c-0.253,-0.135 -0.514,-0.33 -0.667,-0.613c-0.153,-0.283 -0.261,-0.687 -0.348,-1.055c-0.087,-0.368 -0.154,-0.701 -0.226,-0.842c-0.071,-0.141 -0.182,-0.274 -0.285,-0.442c-0.102,-0.167 -0.195,-0.369 -0.231,-0.646c-0.035,-0.277 -0.076,-0.56 -0.127,-0.808c-0.052,-0.248 -0.115,-0.463 -0.196,-0.605c-0.081,-0.142 -0.143,-0.381 -0.203,-0.608c-0.06,-0.227 -0.119,-0.441 -0.193,-0.533c-0.074,-0.092 -0.227,-0.272 -0.42,-0.434c-0.193,-0.162 -0.427,-0.306 -0.661,-0.328c-0.234,-0.021 -0.547,0.067 -0.871,0.221c-0.324,0.154 -0.659,0.373 -0.935,0.616c-0.277,0.242 -0.586,0.449 -0.855,0.682c-0.269,0.233 -0.497,0.492 -0.612,0.84c-0.115,0.349 -0.28,0.804 -0.44,1.219c-0.16,0.415 -0.316,0.791 -0.414,0.983c-0.097,0.192 -0.298,0.59 -0.469,1.017c-0.171,0.428 -0.31,0.883 -0.286,1.189c-0.022,0.244 -0.013,0.467 0.039,0.619c0.051,0.152 0.146,0.236 0.294,0.204c0.148,-0.032 0.209,-0.162 0.274,-0.284c0.065,-0.123 0.134,-0.237 0.301,-0.239c0.167,-0.002 0.249,0.022 0.309,0.057c0.059,0.035 0.096,0.081 0.172,0.124c0.076,0.043 0.171,0.116 0.267,0.153c0.096,0.036 0.194,0.036 0.278,-0.068c0.084,-0.104 0.194,-0.148 0.307,-0.162c0.113,-0.014 0.231,0.001 0.328,0.016c0.097,0.015 0.195,0.019 0.288,-0.013c0.092,-0.033 0.179,-0.102 0.254,-0.237c0.075,-0.134 0.175,-0.178 0.264,-0.186c0.089,-0.008 0.166,0.021 0.195,0.032c0.12,0.163 0.227,0.39 0.299,0.602c0.073,0.213 0.113,0.411 0.097,0.519c-0.015,0.108 -0.068,0.282 -0.151,0.472c-0.083,0.191 -0.196,0.397 -0.332,0.567c-0.136,0.17 -0.3,0.413 -0.315,0.681c-0.015,0.267 0.117,0.559 0.575,0.827c-0.009,0.177 -0.028,0.274 0.024,0.404c0.052,0.131 0.177,0.294 0.456,0.603c0.103,0.104 0.204,0.295 0.288,0.499c0.083,0.203 0.148,0.418 0.181,0.567c0.012,0.05 0.042,0.083 0.073,0.091c0.03,0.007 0.061,-0.01 0.073,-0.065c0.057,-0.159 0.15,-0.359 0.224,-0.67c0.074,-0.312 0.13,-0.734 0.11,-1.34c-0.089,0.025 -0.209,0.068 -0.328,0.136c-0.119,0.068 -0.236,0.161 -0.32,0.285c-0.008,-0.237 0.013,-0.575 0.051,-0.893c0.037,-0.318 0.091,-0.616 0.148,-0.77c0.057,-0.155 0.08,-0.232 0.11,-0.29c0.03,-0.058 0.066,-0.095 0.148,-0.17c0.082,-0.075 0.142,-0.2 0.154,-0.337c0.011,-0.137 -0.025,-0.287 -0.137,-0.41c-0.112,-0.124 -0.189,-0.235 -0.236,-0.349c-0.046,-0.113 -0.06,-0.227 -0.044,-0.354c0.016,-0.127 0.147,-0.298 0.419,-0.449c0.272,-0.152 0.686,-0.284 1.267,-0.334c0.079,-0.006 0.117,0.025 0.119,0.067c0.003,0.042 -0.029,0.094 -0.089,0.131c-0.06,0.036 -0.187,0.119 -0.315,0.209c-0.127,0.09 -0.254,0.187 -0.316,0.253c-0.062,0.065 -0.168,0.218 -0.175,0.412c-0.007,0.194 0.085,0.43 0.417,0.662c0.332,0.233 0.534,0.359 0.71,0.431c0.176,0.073 0.324,0.092 0.548,0.113c-0.064,-0.082 -0.25,-0.256 -0.428,-0.424c-0.178,-0.168 -0.349,-0.332 -0.385,-0.393c-0.037,-0.061 -0.092,-0.132 -0.1,-0.219c-0.008,-0.086 0.031,-0.188 0.184,-0.308c0.153,-0.12 0.286,-0.227 0.388,-0.318c0.103,-0.091 0.175,-0.167 0.207,-0.224c0.134,0.075 0.353,0.195 0.573,0.306c0.22,0.112 0.441,0.216 0.576,0.261c0.135,0.046 0.279,0.119 0.409,0.209c0.13,0.091 0.247,0.2 0.33,0.319c0.151,0.219 0.488,0.417 0.885,0.53c0.398,0.113 0.858,0.141 1.257,0.017c-0.12,-0.042 -0.396,-0.161 -0.692,-0.335z" fill="#ffecb3" fill-rule="evenodd"></path></g></g></svg>